<mxfile host="app.diagrams.net" modified="2023-04-19T13:45:33.889Z" agent="Mozilla/5.0 (Macintosh; Intel Mac OS X 10_15_7) AppleWebKit/537.36 (KHTML, like Gecko) Chrome/112.0.0.0 Safari/537.36" etag="KknHwE1fikwzvtyKNHHd" version="21.1.7" type="github">
  <diagram name="第 1 页" id="VubR08Lg9cPs3QMdT1Jg">
    <mxGraphModel dx="794" dy="516" grid="1" gridSize="10" guides="1" tooltips="1" connect="1" arrows="1" fold="1" page="1" pageScale="1" pageWidth="827" pageHeight="1169" math="0" shadow="0">
      <root>
        <mxCell id="0" />
        <mxCell id="1" parent="0" />
        <mxCell id="hNN7TGHLxLDK0E8JxWqw-6" value="" style="edgeStyle=orthogonalEdgeStyle;rounded=0;orthogonalLoop=1;jettySize=auto;html=1;" edge="1" parent="1" source="hNN7TGHLxLDK0E8JxWqw-1" target="hNN7TGHLxLDK0E8JxWqw-5">
          <mxGeometry relative="1" as="geometry" />
        </mxCell>
        <mxCell id="hNN7TGHLxLDK0E8JxWqw-1" value="初始化" style="rounded=1;whiteSpace=wrap;html=1;fillColor=#d5e8d4;strokeColor=#82b366;" vertex="1" parent="1">
          <mxGeometry x="180" y="110" width="120" height="60" as="geometry" />
        </mxCell>
        <mxCell id="hNN7TGHLxLDK0E8JxWqw-3" style="edgeStyle=orthogonalEdgeStyle;rounded=0;orthogonalLoop=1;jettySize=auto;html=1;" edge="1" parent="1" source="hNN7TGHLxLDK0E8JxWqw-2">
          <mxGeometry relative="1" as="geometry">
            <mxPoint x="170" y="140" as="targetPoint" />
          </mxGeometry>
        </mxCell>
        <mxCell id="hNN7TGHLxLDK0E8JxWqw-2" value="运营" style="shape=umlActor;verticalLabelPosition=bottom;verticalAlign=top;html=1;outlineConnect=0;" vertex="1" parent="1">
          <mxGeometry x="50" y="110" width="30" height="60" as="geometry" />
        </mxCell>
        <mxCell id="hNN7TGHLxLDK0E8JxWqw-4" value="新建商品" style="text;html=1;align=center;verticalAlign=middle;resizable=0;points=[];autosize=1;strokeColor=none;fillColor=none;" vertex="1" parent="1">
          <mxGeometry x="90" y="110" width="70" height="30" as="geometry" />
        </mxCell>
        <mxCell id="hNN7TGHLxLDK0E8JxWqw-8" value="" style="edgeStyle=orthogonalEdgeStyle;rounded=0;orthogonalLoop=1;jettySize=auto;html=1;" edge="1" parent="1" source="hNN7TGHLxLDK0E8JxWqw-5" target="hNN7TGHLxLDK0E8JxWqw-7">
          <mxGeometry relative="1" as="geometry" />
        </mxCell>
        <mxCell id="hNN7TGHLxLDK0E8JxWqw-5" value="待审核" style="whiteSpace=wrap;html=1;rounded=1;fillColor=#d5e8d4;strokeColor=#82b366;" vertex="1" parent="1">
          <mxGeometry x="360" y="110" width="120" height="60" as="geometry" />
        </mxCell>
        <mxCell id="hNN7TGHLxLDK0E8JxWqw-10" value="" style="edgeStyle=orthogonalEdgeStyle;rounded=0;orthogonalLoop=1;jettySize=auto;html=1;" edge="1" parent="1" source="hNN7TGHLxLDK0E8JxWqw-7" target="hNN7TGHLxLDK0E8JxWqw-9">
          <mxGeometry relative="1" as="geometry" />
        </mxCell>
        <mxCell id="hNN7TGHLxLDK0E8JxWqw-7" value="审核中" style="whiteSpace=wrap;html=1;rounded=1;fillColor=#d5e8d4;strokeColor=#82b366;" vertex="1" parent="1">
          <mxGeometry x="560" y="110" width="120" height="60" as="geometry" />
        </mxCell>
        <mxCell id="hNN7TGHLxLDK0E8JxWqw-14" value="" style="edgeStyle=orthogonalEdgeStyle;rounded=0;orthogonalLoop=1;jettySize=auto;html=1;" edge="1" parent="1" source="hNN7TGHLxLDK0E8JxWqw-9" target="hNN7TGHLxLDK0E8JxWqw-13">
          <mxGeometry relative="1" as="geometry" />
        </mxCell>
        <mxCell id="hNN7TGHLxLDK0E8JxWqw-9" value="待发布" style="whiteSpace=wrap;html=1;rounded=1;fillColor=#d5e8d4;strokeColor=#82b366;" vertex="1" parent="1">
          <mxGeometry x="560" y="230" width="120" height="60" as="geometry" />
        </mxCell>
        <mxCell id="hNN7TGHLxLDK0E8JxWqw-11" value="审核通过" style="text;html=1;align=center;verticalAlign=middle;resizable=0;points=[];autosize=1;strokeColor=none;fillColor=none;" vertex="1" parent="1">
          <mxGeometry x="620" y="180" width="70" height="30" as="geometry" />
        </mxCell>
        <mxCell id="hNN7TGHLxLDK0E8JxWqw-12" value="提交审核" style="text;html=1;align=center;verticalAlign=middle;resizable=0;points=[];autosize=1;strokeColor=none;fillColor=none;" vertex="1" parent="1">
          <mxGeometry x="480" y="110" width="70" height="30" as="geometry" />
        </mxCell>
        <mxCell id="hNN7TGHLxLDK0E8JxWqw-17" value="" style="edgeStyle=orthogonalEdgeStyle;rounded=0;orthogonalLoop=1;jettySize=auto;html=1;" edge="1" parent="1" source="hNN7TGHLxLDK0E8JxWqw-13" target="hNN7TGHLxLDK0E8JxWqw-16">
          <mxGeometry relative="1" as="geometry" />
        </mxCell>
        <mxCell id="hNN7TGHLxLDK0E8JxWqw-13" value="已发布" style="whiteSpace=wrap;html=1;rounded=1;fillColor=#d5e8d4;strokeColor=#82b366;" vertex="1" parent="1">
          <mxGeometry x="370" y="230" width="120" height="60" as="geometry" />
        </mxCell>
        <mxCell id="hNN7TGHLxLDK0E8JxWqw-15" value="发布" style="text;html=1;align=center;verticalAlign=middle;resizable=0;points=[];autosize=1;strokeColor=none;fillColor=none;" vertex="1" parent="1">
          <mxGeometry x="495" y="225" width="50" height="30" as="geometry" />
        </mxCell>
        <mxCell id="hNN7TGHLxLDK0E8JxWqw-19" style="edgeStyle=orthogonalEdgeStyle;rounded=0;orthogonalLoop=1;jettySize=auto;html=1;entryX=0.5;entryY=1;entryDx=0;entryDy=0;" edge="1" parent="1" source="hNN7TGHLxLDK0E8JxWqw-16" target="hNN7TGHLxLDK0E8JxWqw-1">
          <mxGeometry relative="1" as="geometry" />
        </mxCell>
        <mxCell id="hNN7TGHLxLDK0E8JxWqw-16" value="已下线" style="whiteSpace=wrap;html=1;rounded=1;fillColor=#d5e8d4;strokeColor=#82b366;" vertex="1" parent="1">
          <mxGeometry x="180" y="230" width="120" height="60" as="geometry" />
        </mxCell>
        <mxCell id="hNN7TGHLxLDK0E8JxWqw-18" value="下线" style="text;html=1;align=center;verticalAlign=middle;resizable=0;points=[];autosize=1;strokeColor=none;fillColor=none;" vertex="1" parent="1">
          <mxGeometry x="310" y="225" width="50" height="30" as="geometry" />
        </mxCell>
        <mxCell id="hNN7TGHLxLDK0E8JxWqw-20" value="编辑" style="text;html=1;align=center;verticalAlign=middle;resizable=0;points=[];autosize=1;strokeColor=none;fillColor=none;" vertex="1" parent="1">
          <mxGeometry x="240" y="190" width="50" height="30" as="geometry" />
        </mxCell>
      </root>
    </mxGraphModel>
  </diagram>
</mxfile>
